<svg width="20" height="20" viewBox="0 0 20 20" fill="none" xmlns="http://www.w3.org/2000/svg">
<path d="M17.4875 10.4049C17.4094 11.8517 16.9139 13.2449 16.0609 14.4161C15.2079 15.5873 14.0339 16.4863 12.6809 17.0045C11.3278 17.5227 9.85361 17.6379 8.43649 17.3362C7.01936 17.0345 5.71997 16.3287 4.69539 15.3042C3.67082 14.2798 2.96492 12.9804 2.66302 11.5633C2.36113 10.1463 2.47617 8.67205 2.99424 7.31894C3.51231 5.96583 4.41122 4.79175 5.58232 3.93862C6.75342 3.08549 8.14656 2.58985 9.59334 2.51159C9.93084 2.49326 10.1075 2.89493 9.92834 3.18076C9.32909 4.13955 9.07249 5.27315 9.20042 6.39655C9.32836 7.51995 9.83328 8.56682 10.6328 9.36632C11.4323 10.1658 12.4792 10.6707 13.6026 10.7987C14.726 10.9266 15.8595 10.67 16.8183 10.0708C17.105 9.89159 17.5058 10.0674 17.4875 10.4049Z" stroke="#4A5565" stroke-width="1.66667" stroke-linecap="round" stroke-linejoin="round"/>
</svg>
