<svg width="20" height="20" viewBox="0 0 20 20" fill="none" xmlns="http://www.w3.org/2000/svg">
<path d="M18.3334 14.1667C18.3334 14.6087 18.1578 15.0326 17.8452 15.3452C17.5326 15.6577 17.1087 15.8333 16.6667 15.8333H5.69002C5.24803 15.8334 4.82417 16.0091 4.51169 16.3217L2.67669 18.1567C2.59394 18.2394 2.48852 18.2957 2.37376 18.3186C2.259 18.3414 2.14005 18.3297 2.03194 18.2849C1.92384 18.2401 1.83144 18.1643 1.76643 18.067C1.70141 17.9697 1.6667 17.8553 1.66669 17.7383V4.16667C1.66669 3.72464 1.84228 3.30072 2.15484 2.98816C2.4674 2.67559 2.89133 2.5 3.33335 2.5H16.6667C17.1087 2.5 17.5326 2.67559 17.8452 2.98816C18.1578 3.30072 18.3334 3.72464 18.3334 4.16667V14.1667Z" stroke="#4A5565" stroke-width="1.66667" stroke-linecap="round" stroke-linejoin="round"/>
</svg>
