<svg width="20" height="20" viewBox="0 0 20 20" fill="none" xmlns="http://www.w3.org/2000/svg">
<g clip-path="url(#clip0_1_460)">
<path d="M5.83334 8.33331V18.3333" stroke="#4A5565" stroke-width="1.66667" stroke-linecap="round" stroke-linejoin="round"/>
<path d="M12.5 4.90002L11.6667 8.33335H16.525C16.7838 8.33335 17.0389 8.3936 17.2704 8.50931C17.5018 8.62502 17.7031 8.79303 17.8584 9.00002C18.0136 9.20701 18.1185 9.44731 18.1648 9.70188C18.2111 9.95645 18.1975 10.2183 18.125 10.4667L16.1834 17.1334C16.0824 17.4795 15.8718 17.7837 15.5834 18C15.2949 18.2164 14.944 18.3334 14.5834 18.3334H3.33335C2.89133 18.3334 2.4674 18.1578 2.15484 17.8452C1.84228 17.5326 1.66669 17.1087 1.66669 16.6667V10C1.66669 9.55799 1.84228 9.13407 2.15484 8.82151C2.4674 8.50895 2.89133 8.33335 3.33335 8.33335H5.63335C5.94342 8.33319 6.2473 8.24653 6.51082 8.08312C6.77433 7.91971 6.98704 7.68603 7.12502 7.40835L10 1.66669C10.393 1.67155 10.7798 1.76516 11.1315 1.94052C11.4832 2.11587 11.7908 2.36844 12.0312 2.67936C12.2716 2.99027 12.4386 3.35149 12.5198 3.73602C12.601 4.12056 12.5942 4.51847 12.5 4.90002Z" stroke="#4A5565" stroke-width="1.66667" stroke-linecap="round" stroke-linejoin="round"/>
</g>
<defs>
<clipPath id="clip0_1_460">
<rect width="20" height="20" fill="white"/>
</clipPath>
</defs>
</svg>
